<?xml version="1.0" encoding="utf-8"?>
<svg viewBox="0 0 100 100" xmlns="http://www.w3.org/2000/svg">
  <path class="st0" d="M 19.55 85.8 L 12.15 85.8 L 12.15 46.5 C 12.15 28.6 26.65 14.2 44.45 14.2 L 87.85 14.2 L 87.85 53.2 C 87.85 71.1 73.35 85.5 55.55 85.5 L 43.15 85.5 L 43.15 47.3 C 43.15 43.7 46.05 40.7 49.75 40.7 L 57.15 40.7 L 57.15 71.4 C 66.45 70.6 73.85 62.7 73.85 53.1 L 73.85 28.1 L 44.45 28.1 C 34.35 28.1 26.15 36.3 26.15 46.4 L 26.15 79.1 C 26.15 82.8 23.25 85.8 19.55 85.8 Z" style="fill: rgb(185, 223, 214);"/>
</svg>